Coordinates
version=1
nRows=29
nColumns=24
inDegrees=yes

Units are S.I. units (second, meters, Newtons, ...)
Angles are in degrees.

endheader
time	pelvis_tilt	pelvis_list	pelvis_rotation	pelvis_tx	pelvis_ty	pelvis_tz	hip_flexion_r	hip_adduction_r	hip_rotation_r	knee_angle_r	ankle_angle_r	subtalar_angle_r	mtp_angle_r	hip_flexion_l	hip_adduction_l	hip_rotation_l	knee_angle_l	ankle_angle_l	subtalar_angle_l	mtp_angle_l	lumbar_extension	lumbar_bending	lumbar_rotation
      3.36500000	    -13.38947292	      9.81004223	     -2.72226132	     -0.87246147	     -0.04055701	      0.48578868	     12.04037102	     -9.49410469	      2.79984433	    -52.41742768	    -17.43012220	      1.51177239	     18.45279864	     33.23292215	     13.91912630	      5.31364643	    -23.90047461	     -3.92632710	     -6.11087630	     -2.78458190	     11.01646371	    -10.99814559	     12.77801171
      3.37000000	    -13.36432796	      9.86457070	     -2.74372834	     -0.86513615	     -0.03937988	      0.48543363	     13.08935395	     -9.63670193	      2.75314586	    -53.51336836	    -17.21132292	      0.73833522	     18.04287374	     32.55940356	     13.98141657	      5.16773487	    -23.57127168	     -3.51276857	     -5.82469617	     -2.35569097	     10.97231412	    -11.02187716	     12.65577415
      3.37500000	    -13.35587155	      9.88193796	     -2.76233690	     -0.85786067	     -0.03816623	      0.48508646	     14.15496612	     -9.73386440	      2.71621466	    -54.52791375	    -16.90632953	      0.19598893	     17.65920410	     31.88517285	     14.00916337	      5.08834154	    -23.21552910	     -3.13430881	     -5.53940615	     -1.89606220	     10.94040492	    -11.00459090	     12.54707518
      3.38000000	    -13.34022636	      9.88205433	     -2.77586168	     -0.85060262	     -0.03690945	      0.48472639	     15.20087462	     -9.81228854	      2.68413576	    -55.44428293	    -16.52844729	     -0.16156518	     17.45443791	     31.18621456	     14.03113128	      5.04945617	    -22.83447795	     -2.80146253	     -5.31888603	     -1.50709862	     10.89900029	    -10.96609676	     12.41604963
      3.38500000	    -13.30361419	      9.86030032	     -2.77311445	     -0.84339649	     -0.03560536	      0.48432652	     16.20706302	     -9.87468888	      2.63049625	    -56.25366648	    -16.11122818	     -0.39121447	     17.48539160	     30.45253977	     14.05698878	      5.09704122	    -22.44456934	     -2.50238675	     -5.17125201	     -1.26223842	     10.82305130	    -10.90860331	     12.27253150
      3.39000000	    -13.27517589	      9.79933268	     -2.78924386	     -0.83611276	     -0.03425162	      0.48396900	     17.19613573	     -9.87635402	      2.60146618	    -56.94404020	    -15.68348716	     -0.51617030	     17.60915176	     29.68948790	     14.04197605	      5.22477633	    -22.01108919	     -2.19785212	     -5.07379838	     -1.08503384	     10.77902477	    -10.80434563	     12.15404533
      3.39500000	    -13.28404789	      9.71682114	     -2.80267999	     -0.82897628	     -0.03296613	      0.48362368	     18.22529138	     -9.83374181	      2.61226264	    -57.57121115	    -15.11941092	     -0.45914408	     17.83828663	     28.99038354	     13.99956894	      5.31961687	    -21.60003905	     -1.93774790	     -4.99132136	     -0.89709339	     10.75052237	    -10.67196080	     11.99080745
      3.40000000	    -13.28760355	      9.61249905	     -2.80360588	     -0.82180701	     -0.03165563	      0.48324666	     19.22057855	     -9.77043695	      2.59681805	    -58.09243311	    -14.55318538	     -0.35431221	     18.14715182	     28.25985810	     13.95595707	      5.51629340	    -21.16226149	     -1.71237091	     -5.00652358	     -0.80916900	     10.72344023	    -10.51809723	     11.82658780
      3.40500000	    -13.29029667	      9.48896375	     -2.78923224	     -0.81465036	     -0.03034393	      0.48283333	     20.18926288	     -9.68563642	      2.57304004	    -58.51903402	    -13.94776063	     -0.17348810	     18.54936891	     27.51801556	     13.90764470	      5.76851179	    -20.71457616	     -1.51471243	     -5.07991514	     -0.80020511	     10.69198392	    -10.34407296	     11.63557155
      3.41000000	    -13.28910501	      9.34583180	     -2.75939977	     -0.80750567	     -0.02903079	      0.48237861	     21.12789244	     -9.58100631	      2.53466419	    -58.85250261	    -13.32179770	      0.04481939	     19.02268128	     26.76269458	     13.85242875	      6.07074636	    -20.25830362	     -1.33929536	     -5.19961930	     -0.86658180	     10.65338554	    -10.14996727	     11.41840840
      3.41500000	    -13.28105943	      9.18080658	     -2.71262459	     -0.80038136	     -0.02771288	      0.48189113	     22.03261037	     -9.45264550	      2.48036290	    -59.09455298	    -12.69375431	      0.26533328	     19.52227988	     25.99114769	     13.78374962	      6.41196973	    -19.79262683	     -1.17506812	     -5.33805780	     -0.98634734	     10.60376014	     -9.93366904	     11.18283503
      3.42000000	    -13.25017791	      9.04081948	     -2.64876358	     -0.79324000	     -0.02639585	      0.48136595	     22.89253145	     -9.36002552	      2.41297956	    -59.24636801	    -12.10321439	      0.42616797	     20.21950328	     25.17679059	     13.75186909	      6.80116829	    -19.29850786	     -1.03274554	     -5.51476307	     -1.23527986	     10.53361169	     -9.75028952	     10.94222914
      3.42500000	    -13.23287279	      8.82214305	     -2.56649284	     -0.78613880	     -0.02507606	      0.48083773	     23.73368665	     -9.16684960	      2.33572767	    -59.32022957	    -11.51165371	      0.61305671	     20.65041078	     24.37751072	     13.62922954	      7.16569375	    -18.80746521	     -0.85465893	     -5.58734169	     -1.35466462	     10.46635008	     -9.48594383	     10.63634949
      3.43000000	    -13.22445477	      8.59281352	     -2.50647211	     -0.77905988	     -0.02380829	      0.48035810	     24.57956853	     -8.94003794	      2.27058149	    -59.33449233	    -10.94721843	      0.69722144	     20.92193208	     23.58287070	     13.47305430	      7.50563143	    -18.29542708	     -0.66898903	     -5.64415753	     -1.41706033	     10.41710071	     -9.20623319	     10.42965581
      3.43500000	    -13.15104812	      8.39028604	     -2.34611825	     -0.77198810	     -0.02250089	      0.47971475	     25.30534493	     -8.79752523	      2.13655261	    -59.25731649	    -10.33683996	      0.84942059	     21.36453395	     22.70408896	     13.38880932	      7.89850428	    -17.76055487	     -0.56462710	     -5.72589910	     -1.56606725	     10.27685983	     -8.97923779	     10.01141217
      3.44000000	    -13.14620643	      8.15368076	     -2.26192621	     -0.76492513	     -0.02131093	      0.47921068	     26.11720448	     -8.55722273	      2.07243875	    -59.13189976	     -9.82754519	      0.84696351	     21.54736095	     21.89886811	     13.20875177	      8.18927013	    -17.20246606	     -0.38843346	     -5.70997122	     -1.57602125	     10.23416518	     -8.69626919	      9.77728292
      3.44500000	    -13.07802722	      7.90093430	     -2.07230694	     -0.75785374	     -0.02006681	      0.47856259	     26.79731603	     -8.35932745	      1.90886439	    -58.90774164	     -9.29042041	      0.87457307	     21.76320173	     21.01605224	     13.04811048	      8.51124411	    -16.63451704	     -0.26550640	     -5.65257355	     -1.55939905	     10.10387017	     -8.42385327	      9.34349510
      3.45000000	    -12.99014132	      7.66404679	     -1.91441903	     -0.75082640	     -0.01888344	      0.47799800	     27.46187166	     -8.15279671	      1.78944086	    -58.63689130	     -8.83956713	      0.78310135	     21.88597998	     20.10520414	     12.87655043	      8.82208956	    -16.03453088	     -0.13089270	     -5.57790994	     -1.47188453	      9.95423080	     -8.16835935	      8.96267817
      3.45500000	    -12.93968859	      7.41136264	     -1.74760527	     -0.74375210	     -0.01777644	      0.47742872	     28.14189167	     -7.93073365	      1.66318865	    -58.29626937	     -8.43072465	      0.66534891	     21.91391922	     19.23137824	     12.67552071	      9.08491484	    -15.42061590	     -0.00839581	     -5.46669716	     -1.35212249	      9.86064199	     -7.89354524	      8.61799969
      3.46000000	    -12.84384554	      7.17025347	     -1.56745794	     -0.73674141	     -0.01671859	      0.47689034	     28.76230631	     -7.72540506	      1.53044552	    -57.90814118	     -8.05640036	      0.46831028	     21.83778648	     18.31238793	     12.48189386	      9.37052016	    -14.80124378	      0.10973663	     -5.34742145	     -1.15530345	      9.70606597	     -7.64382838	      8.21726323
      3.46500000	    -12.77159110	      6.91909463	     -1.38655143	     -0.72972862	     -0.01574476	      0.47638291	     29.39082854	     -7.50890496	      1.39608383	    -57.46045311	     -7.71806710	      0.26036233	     21.67309435	     17.42209518	     12.26763074	      9.64207229	    -14.17956891	      0.20965658	     -5.24982246	     -0.96500440	      9.58451783	     -7.38474737	      7.84054473
      3.47000000	    -12.75458379	      6.66162203	     -1.21783816	     -0.72269162	     -0.01488672	      0.47587713	     30.06489729	     -7.28109978	      1.28412247	    -56.95103481	     -7.42225091	      0.07479811	     21.49562590	     16.59690778	     12.03704885	      9.90021734	    -13.56496180	      0.30334657	     -5.17289496	     -0.85762443	      9.53631475	     -7.10947304	      7.52442686
      3.47500000	    -12.69493683	      6.39975298	     -1.02606702	     -0.71570108	     -0.01407244	      0.47538005	     30.66991799	     -7.06707319	      1.13607710	    -56.38459204	     -7.15011702	     -0.17672804	     21.20535058	     15.73232050	     11.80650414	     10.21053950	    -12.96040707	      0.39545861	     -5.13235939	     -0.75027708	      9.43249746	     -6.84178021	      7.13774095
      3.48000000	    -12.64480391	      6.14384167	     -0.85047597	     -0.70872983	     -0.01334701	      0.47495413	     31.27463809	     -6.85116230	      1.00937377	    -55.76667528	     -6.89134240	     -0.40953486	     20.85174343	     14.88482482	     11.57128101	     10.51989052	    -12.35935481	      0.46617474	     -5.15123224	     -0.69464404	      9.34113668	     -6.58629548	      6.78206817
      3.48500000	    -12.56833227	      5.90116808	     -0.67467342	     -0.70181615	     -0.01270716	      0.47454842	     31.84001087	     -6.65367773	      0.88288767	    -55.10722575	     -6.61833251	     -0.65465347	     20.36118233	     14.01836945	     11.35053413	     10.88562506	    -11.77208851	      0.53149328	     -5.24922364	     -0.67497910	      9.21316165	     -6.34935037	      6.39145687
      3.49000000	    -12.54498232	      5.64340873	     -0.51413155	     -0.69487575	     -0.01217133	      0.47417432	     32.44035568	     -6.43897837	      0.76756649	    -54.37895692	     -6.36431554	     -0.82545586	     19.87160121	     13.21548791	     11.10410422	     11.23871941	    -11.19338840	      0.58544172	     -5.38416159	     -0.72951882	      9.15371877	     -6.09087171	      6.06255868
      3.49500000	    -12.53632444	      5.38384373	     -0.36074437	     -0.68797093	     -0.01173500	      0.47381765	     33.03677116	     -6.22569834	      0.65338928	    -53.58585055	     -6.11237470	     -0.97969834	     19.38749303	     12.44543011	     10.85298396	     11.59675812	    -10.64107508	      0.64459701	     -5.55661019	     -0.84018614	      9.10853817	     -5.82815280	      5.73421188
      3.50000000	    -12.51958625	      5.12866966	     -0.22633102	     -0.68108732	     -0.01135777	      0.47349761	     33.60623212	     -6.01182953	      0.56658127	    -52.73567392	     -5.85855494	     -1.05024012	     18.81774460	     11.66823756	     10.59732505	     11.98603182	    -10.08849105	      0.69374449	     -5.76856126	     -1.00726752	      9.05471188	     -5.56803322	      5.42105694
      3.50500000	    -12.55246011	      4.85536146	     -0.08135096	     -0.67422586	     -0.01112552	      0.47317749	     34.19544651	     -5.79719410	      0.44153458	    -51.80040918	     -5.59813976	     -1.13538623	     18.36803476	     10.97572765	     10.32483989	     12.32910886	     -9.58707754	      0.77727818	     -5.98176805	     -1.17428633	      9.05218041	     -5.29209093	      5.10812767
